PathFileType	4	(X/Y/Z)	 s06c0301.trc
DataRate	CameraRate	NumFrames	NumMarkers	Units	OrigDataRate	OrigDataStartFrame	OrigNumFrames
200	200	6	48	mm	200	501	2000
Frame#	Time	racr			lacr			c7			jug			rlel			rdr			llel			ldr			s2			lic			ric			lasi			rasi			rpsi			lpsi			rgt			lgt			rth1			rth2			rth3			rth4			rlfc			rmfc			rsh1			rsh2			rsh3			rsh4			rlmal			rcal			rtoe			rmt5			lth1			lth2			lth4			lth3			llfc			lmfc			llmal			lcal			lmt5			lsh1			lsh2			lsh3			lsh4			ltoe			SBIKE			LBIKE			RBIKE			
		X1	Y1	Z1	X2	Y2	Z2	X3	Y3	Z3	X4	Y4	Z4	X5	Y5	Z5	X6	Y6	Z6	X7	Y7	Z7	X8	Y8	Z8	X9	Y9	Z9	X10	Y10	Z10	X11	Y11	Z11	X12	Y12	Z12	X13	Y13	Z13	X14	Y14	Z14	X15	Y15	Z15	X16	Y16	Z16	X17	Y17	Z17	X18	Y18	Z18	X19	Y19	Z19	X20	Y20	Z20	X21	Y21	Z21	X22	Y22	Z22	X23	Y23	Z23	X24	Y24	Z24	X25	Y25	Z25	X26	Y26	Z26	X27	Y27	Z27	X28	Y28	Z28	X29	Y29	Z29	X30	Y30	Z30	X31	Y31	Z31	X32	Y32	Z32	X33	Y33	Z33	X34	Y34	Z34	X35	Y35	Z35	X36	Y36	Z36	X37	Y37	Z37	X38	Y38	Z38	X39	Y39	Z39	X40	Y40	Z40	X41	Y41	Z41	X42	Y42	Z42	X43	Y43	Z43	X44	Y44	Z44	X45	Y45	Z45	X46	Y46	Z46	X47	Y47	Z47	X48	Y48	Z48	
501	2.5050	663.399029	1261.833005	-60.630513	683.134764	1247.349012	-379.414010	695.479030	1332.532726	-226.396511	643.244620	1165.603616	-217.411937	523.434627	1040.267288	27.264121	712.432315	932.072498	-48.895561	545.896218	1038.649117	-504.774676	710.224212	926.834657	-413.745769	128.556020	1177.696419	-274.256632	307.580404	1114.321555	-423.905183	251.619552	1143.182519	-101.135733	306.526408	1057.393068	-383.246786	280.069017	1096.120408	-127.736119	166.578887	1216.224811	-253.485986	167.380006	1203.460585	-313.733541	217.744039	1079.006225	-68.270126	267.563814	1041.125552	-455.510771	295.255654	969.607692	-39.848418	360.688629	906.820273	-34.786264	384.157225	822.534494	-35.888418	391.026980	925.825532	-48.638017	418.262916	717.110603	-46.301096	417.460819	690.298526	-155.223931	374.787444	597.324837	-25.882290	364.098797	512.903600	-46.178977	314.046520	442.208176	-53.233628	387.834068	508.710212	-79.230092	273.987194	368.061247	-60.215206	210.500926	343.291250	-111.238986	482.596779	291.454811	-96.835617	380.814531	285.358476	-31.672454	313.248807	931.606905	-446.988596	377.900969	875.372988	-432.514347	406.167652	896.001977	-421.331141	406.203639	791.250796	-418.768521	416.527209	683.071991	-391.250040	407.889839	679.330576	-273.784649	106.401086	488.403468	-378.311722	48.512550	534.005010	-333.995498	93.927228	339.755492	-399.939351	338.586962	611.162036	-409.653852	278.548460	553.018329	-385.563228	193.696084	524.634016	-385.580016	292.113927	539.709505	-350.385018	134.343119	264.157401	-341.748032	-202.256064	869.578075	-211.358342	-48.294344	84.212077	-419.437697	-49.775539	79.669917	-22.143442	
502	2.5100	664.026526	1261.579229	-61.959773	682.455834	1247.430218	-380.589335	694.808478	1332.129881	-228.218583	643.559540	1164.944335	-218.697041	523.995863	1040.680609	27.389631	712.339419	932.002055	-49.175551	545.582341	1037.786064	-505.396585	709.944578	926.728752	-414.049580	128.330939	1174.536694	-273.916762	307.089831	1113.254849	-424.474411	252.601680	1139.232287	-101.456369	306.417796	1056.484765	-384.293507	281.015883	1092.414989	-128.431367	166.423392	1213.281988	-252.675231	166.901257	1200.833215	-312.906772	218.995901	1074.652780	-68.892160	266.586409	1040.942918	-456.845918	295.025896	964.579499	-40.757733	359.417318	900.638105	-36.078660	381.764194	815.919889	-36.934336	390.046118	919.339543	-49.701210	414.587745	709.528133	-47.692731	411.967727	682.967365	-156.635308	371.178549	589.943778	-26.537024	361.214736	505.354485	-46.738088	311.694374	434.251190	-53.706307	385.570205	500.959935	-80.038485	272.050931	360.301769	-60.454361	208.679647	335.967420	-111.321188	480.621027	282.773157	-97.074834	378.920941	277.165814	-31.979445	313.170854	932.483558	-447.653253	379.347344	877.479695	-434.654011	407.442351	898.637614	-424.185021	409.489377	793.939607	-421.222819	422.191097	686.108921	-392.488176	411.572112	682.080816	-275.959859	109.035400	495.620010	-377.554012	51.323334	541.997813	-333.935379	96.133343	347.615239	-399.871302	343.690781	614.811743	-410.362135	282.661467	557.885499	-385.999805	197.299332	531.059627	-385.862820	295.434708	543.917915	-349.770580	136.354039	271.878345	-341.862987	-202.230214	869.569814	-211.495704	-48.316232	84.176951	-419.476792	-49.788733	79.667686	-22.185266	
503	2.5150	664.618096	1261.586451	-63.187825	681.858094	1247.671949	-381.734450	694.136423	1331.900761	-229.865072	643.897555	1164.460635	-219.779587	524.546024	1041.164573	27.356150	712.236574	931.981778	-49.594337	545.225313	1037.417360	-506.045759	709.667064	926.646543	-414.650281	128.406092	1171.533994	-273.255287	306.480204	1112.398686	-424.977764	253.558799	1135.512305	-101.619165	306.346045	1055.669132	-385.184567	282.298644	1089.179385	-128.992662	166.160452	1210.411463	-251.857914	166.360563	1198.302251	-311.952127	220.333857	1069.968278	-69.510459	265.846935	1040.612778	-458.060305	294.753712	959.629066	-41.604768	358.030871	894.378159	-37.042343	380.358517	809.476905	-37.443702	388.977726	912.590322	-50.627631	410.288945	702.469218	-48.583741	406.962413	675.729874	-157.535277	367.522708	582.839030	-26.999310	358.300540	498.054760	-47.153975	309.304204	426.561830	-54.185295	382.487212	493.668836	-80.683033	270.558503	352.318982	-61.371341	206.740005	329.092325	-111.373631	478.385443	273.931210	-97.387106	376.635437	269.063322	-32.305051	313.401785	933.346888	-448.746377	380.734123	879.560774	-436.897686	408.698718	901.155846	-426.937917	412.594231	796.674179	-424.248503	427.995272	689.257261	-393.638571	417.799491	686.518863	-277.238350	112.335499	503.987740	-378.581367	54.389483	549.755521	-334.046632	98.727331	355.603103	-400.165071	348.665901	618.759035	-411.156254	286.637623	562.899695	-386.405153	200.955151	537.436823	-386.249796	299.757956	549.634442	-351.307359	138.817801	279.549718	-341.960959	-202.140572	869.531368	-211.850015	-48.286815	84.022240	-419.549163	-49.788906	79.620041	-22.238119	
504	2.5200	665.234874	1261.739860	-64.364930	681.325728	1248.025926	-382.817064	693.530750	1331.743390	-231.375364	644.232472	1164.077618	-220.718823	525.075150	1041.414078	26.932228	712.114101	931.917820	-49.937258	545.036381	1037.493323	-506.550396	709.643489	926.336571	-415.057729	128.467483	1168.419366	-272.812496	305.971127	1111.673751	-425.391646	254.765017	1131.512056	-101.773442	306.307127	1055.157023	-386.088985	283.214346	1085.315036	-129.589173	165.804874	1207.564791	-250.661174	165.865869	1195.819900	-311.012692	221.497523	1065.472967	-69.785076	265.323809	1040.332125	-459.233387	294.537771	954.494645	-42.258582	356.555405	888.076992	-37.769264	376.276302	802.625218	-38.949365	387.879648	905.703924	-51.230745	405.983000	695.513161	-49.167193	402.027815	668.838952	-158.151138	363.427702	575.998472	-27.412346	355.199363	491.301224	-47.427722	307.050733	419.211720	-54.595412	379.427560	487.270431	-80.638414	268.585033	345.088766	-61.582247	204.663386	322.475664	-111.428979	475.874363	265.278643	-97.839692	374.071455	261.107067	-32.532122	313.928709	934.176978	-450.390815	382.293263	881.581557	-439.021901	409.935470	903.732451	-429.453459	415.959788	799.405528	-427.866141	433.827838	692.519728	-395.007925	424.129985	690.389587	-278.210771	115.668808	511.420556	-379.067573	57.589410	557.416582	-334.384003	101.692133	362.883780	-400.012445	353.463394	622.878731	-411.961047	290.748363	567.961640	-387.137759	204.622890	543.682175	-386.795160	303.801193	554.194936	-351.876555	141.725328	287.080967	-341.910538	-202.034767	869.525751	-212.291995	-48.264630	83.889028	-419.618732	-49.810611	79.561356	-22.319275	
505	2.5250	665.771939	1262.058260	-65.397827	680.853856	1248.424536	-383.720563	692.925826	1331.765593	-232.713403	644.603869	1163.867940	-221.533229	525.451048	1041.853179	26.469492	712.038551	931.829352	-50.230217	545.024111	1037.919905	-506.954376	709.650304	926.636159	-415.922581	127.896098	1165.841304	-271.617120	305.476175	1111.142547	-425.769949	256.002213	1127.911351	-101.746033	306.323964	1054.618696	-387.019743	285.326346	1082.697173	-130.176690	165.414399	1204.826024	-249.389590	165.461259	1193.559767	-310.254385	223.351754	1060.425623	-71.172872	265.175635	1040.350006	-460.382737	294.169150	949.405140	-42.699744	354.978852	881.864317	-38.152329	371.542250	795.500788	-41.245893	386.733363	898.919310	-51.475656	401.739000	689.111776	-49.456492	397.291496	662.175823	-158.503622	359.219274	569.799645	-27.960857	351.868214	484.599733	-47.493585	304.535142	412.375218	-54.827096	376.233917	481.156168	-80.560941	266.324864	338.292448	-61.696714	202.310900	316.448082	-111.402427	472.992560	256.403630	-98.011418	371.131396	253.342014	-32.727295	314.718820	934.883740	-452.351610	384.041395	883.569446	-441.087559	411.354788	906.165819	-431.613821	419.306730	802.076122	-430.847752	439.525972	696.081569	-396.615722	430.090052	694.550463	-279.582597	119.080795	518.637119	-379.666370	60.844036	564.894855	-335.059740	105.037592	370.324857	-400.192103	358.224025	627.184739	-412.969652	294.780669	572.997152	-387.970859	208.399446	549.805074	-387.522088	307.896403	559.399835	-353.096374	145.095563	294.663908	-341.950523	-201.964173	869.455888	-212.663042	-48.237778	83.789753	-419.683755	-49.839942	79.528508	-22.370772	
506	2.5300	666.328042	1262.773775	-65.978051	680.466483	1248.953749	-384.588836	692.334855	1331.988542	-233.834479	645.045427	1163.868223	-221.878958	525.774785	1042.259620	25.825954	712.081139	931.791872	-50.359991	545.221216	1038.464201	-507.385328	709.810385	926.646481	-416.197893	128.226789	1163.752518	-270.129694	305.084449	1110.673559	-426.060942	257.211252	1124.444611	-101.682636	306.423711	1054.225884	-387.744101	286.451132	1079.513786	-130.563982	165.066641	1202.650360	-248.301775	165.089632	1191.271226	-309.213666	224.407140	1056.008221	-71.405694	265.079970	1040.394005	-461.297724	293.741675	944.365229	-42.958804	353.238363	875.743394	-38.337670	369.468106	789.422976	-40.827613	385.394212	892.337815	-51.403302	397.571124	683.075090	-49.707766	393.719236	655.706369	-158.162910	355.197287	563.839632	-28.008912	348.422949	478.629952	-47.477285	301.634046	405.981190	-54.945329	372.595438	475.193301	-80.673794	263.786188	331.948376	-61.737035	199.812223	310.905312	-111.236772	469.730141	247.762976	-98.158337	367.932965	245.838666	-32.846147	315.812409	935.531881	-454.419339	386.066863	885.665550	-443.205345	412.970421	908.502199	-433.461739	422.894494	804.793052	-433.350811	445.130061	699.879236	-398.448851	435.395846	698.183521	-281.446150	122.591243	525.648713	-380.548799	64.116609	572.403495	-335.914180	108.686062	377.538098	-400.374470	362.928849	631.370123	-414.407439	298.633745	578.198263	-388.813769	212.260763	555.767544	-388.434862	311.896780	564.400705	-354.100709	148.922658	302.211506	-341.705004	-201.993809	869.391302	-212.824227	-48.254689	83.767194	-419.719657	-49.836499	79.524443	-22.394715	
